<?xml version="1.0" encoding="UTF-8" standalone="no"?>
<svg
   width="30.129063"
   height="26.4"
   viewBox="0 0 30.129063 26.4"
   version="1.1"
   id="svg2"
   sodipodi:docname="bodas_logo.svg"
   inkscape:version="1.3.2 (091e20e, 2023-11-25, custom)"
   xmlns:inkscape="http://www.inkscape.org/namespaces/inkscape"
   xmlns:sodipodi="http://sodipodi.sourceforge.net/DTD/sodipodi-0.dtd"
   xmlns:xlink="http://www.w3.org/1999/xlink"
   xmlns="http://www.w3.org/2000/svg"
   xmlns:svg="http://www.w3.org/2000/svg">
  <sodipodi:namedview
     id="namedview1"
     pagecolor="#ffffff"
     bordercolor="#000000"
     borderopacity="0.25"
     inkscape:showpageshadow="2"
     inkscape:pageopacity="0.0"
     inkscape:pagecheckerboard="0"
     inkscape:deskcolor="#d1d1d1"
     inkscape:zoom="32.613637"
     inkscape:cx="15.070383"
     inkscape:cy="13.2"
     inkscape:window-width="1920"
     inkscape:window-height="1057"
     inkscape:window-x="-8"
     inkscape:window-y="-8"
     inkscape:window-maximized="1"
     inkscape:current-layer="svg2" />
  <!-- Generator: Sketch 48.1 (47250) - http://www.bohemiancoding.com/sketch -->
  <title
     id="title1">gen_logoHeader</title>
  <desc
     id="desc1">Created with Sketch.</desc>
  <defs
     id="defs1">
    <polygon
       id="path-1"
       points="16.0908,0.18815238 0.15871429,0.18815238 0.15871429,13.365943 16.0908,13.365943 " />
    <polygon
       id="path-3"
       points="0,0 0,26.4 15.064531,26.4 30.129063,26.4 30.129063,0 15.064531,0 " />
  </defs>
  <g
     id="BRAND-HEADER"
     stroke="none"
     stroke-width="1"
     fill="none"
     fill-rule="evenodd">
    <g
       id="gen_logoHeader">
      <g
         id="Page-1">
        <path
           d="m 106.65286,24.436133 c -0.87854,0 -1.67221,-0.737104 -1.67221,-1.615638 0,-0.878743 0.79367,-1.615847 1.67221,-1.615847 0.90724,0 1.70112,0.737104 1.70112,1.615847 0,0.878534 -0.79388,1.615638 -1.70112,1.615638"
           id="Fill-1"
           fill="#3a3a3a" />
        <path
           id="Fill-3"
           d="m 39.349609,5.078125 c 0.08347,0.1768548 0.140065,0.3971282 0.154297,0.6621094 0.08793,1.636941 0.313249,3.2660153 0.527344,4.8906246 0.242347,1.938832 0.601644,3.861777 0.972656,5.779297 0.303213,1.567106 -1.278888,1.871806 -1.582031,0.304688 -0.377065,-1.949266 -0.74172,-3.902169 -0.988281,-5.873047 -0.2231,-1.69431 -0.461089,-3.393602 -0.542969,-5.1015626 -0.0098,-0.2037112 0.0065,-0.3815873 0.04492,-0.5332032 -0.160715,0.1168555 -0.263672,0.3052383 -0.263672,0.5332032 V 18.521484 c 0,3.801806 1.971484,5.923828 6.060547,5.923828 4.176224,10e-7 6.033203,-2.948017 6.033203,-6.611328 0,-3.140968 -1.478681,-6.501953 -5.277344,-6.501953 -1.131218,0 -2.321561,0.220693 -3.394531,1.240235 V 5.7402344 c 0,-0.385733 -0.289292,-0.6621094 -0.666016,-0.6621094 z m 4.470703,7.824219 c 1.827256,0 2.552735,2.011616 2.552735,4.958984 0,1.542303 -0.262359,5.234375 -2.611328,5.234375 -2.523083,0 -2.667969,-3.003943 -2.667969,-4.546875 v -4.515625 c 0.696037,-0.716361 1.653592,-1.130859 2.726562,-1.130859 z" />
        <path
           id="Fill-5"
           d="m 57.240234,11.322266 c -1.505375,0 -2.707889,0.37253 -3.632812,1.017578 0.358996,0.319347 0.671761,0.697254 0.970703,1.060547 0.293281,0.356412 0.464758,0.575702 0.632813,0.798828 0.397706,-0.873366 1.036526,-1.53125 2.058593,-1.53125 1.065852,0 1.698373,0.752146 2.074219,1.714843 0.121037,-0.01384 0.240989,-0.02869 0.386719,-0.01562 1.004063,0.09 1.9992,0.250312 2.99414,0.412109 -0.818138,-2.069583 -2.594223,-3.457031 -5.484375,-3.457031 z m -4.789062,2.144531 c -0.856274,1.156016 -1.261719,2.692532 -1.261719,4.398437 0,3.685098 1.853191,6.572266 6.050781,6.572266 4.168678,0 6.021485,-2.887168 6.021485,-6.572266 0,-0.475358 -0.03208,-0.938155 -0.0957,-1.382812 -1.137387,-0.181577 -2.273357,-0.375671 -3.419922,-0.488281 0.101914,0.701338 0.128906,1.370838 0.128906,1.84375 0,1.567025 -0.290163,5.253906 -2.664062,5.253906 -2.373901,0 -2.634766,-3.686881 -2.634766,-5.253906 0,-0.42454 0.02523,-1.008555 0.107422,-1.63086 -0.03981,-0.05587 -0.07924,-0.112168 -0.119141,-0.167969 -0.648934,-0.882993 -0.563971,-0.791459 -1.21875,-1.599609 -0.268815,-0.33178 -0.551157,-0.701535 -0.894531,-0.972656 z" />
        <path
           id="Fill-7"
           d="m 74.029297,5.078125 c -0.376514,0 -0.695313,0.2751557 -0.695313,0.6328125 v 6.8476565 c -1.041961,-0.990209 -2.228222,-1.236328 -3.53125,-1.236328 -2.568843,0 -4.044065,1.746494 -4.693359,3.816406 0.313317,0.04349 0.626368,0.08885 0.939453,0.132812 0.741834,0.101328 1.486961,0.165387 2.230469,0.25 0.256935,-1.348292 0.865724,-2.632812 2.304687,-2.632812 1.013257,0 2.084517,0.328878 2.779297,1.126953 v 1.982422 c 1.138059,0.08254 2.276225,0.164259 3.416016,0.224609 V 5.7109375 c 0,-0.3576568 -0.287968,-0.6328125 -0.664063,-0.6328125 z m -9.255859,11.642578 c -0.04334,0.366676 -0.06641,0.732018 -0.06641,1.089844 0,2.997025 1.416438,6.632812 5.064453,6.632812 1.418266,0 2.809948,-0.774689 3.910157,-1.957031 0.405009,1.457446 2.113178,1.951172 3.9375,1.951172 1.794569,0 3.561478,-0.383702 4.777343,-1.015625 0.08695,-0.110209 0.115235,-0.24969 0.115235,-0.386719 0,-0.275104 -0.173672,-0.818046 -0.636719,-0.845703 -0.89718,0.33 -2.027204,0.660156 -2.982422,0.660156 -1.186742,0 -2.113281,-0.143283 -2.113281,-1.765625 v -3.246093 c -1.139918,-0.0601 -2.277784,-0.142791 -3.416016,-0.22461 v 3.71875 c -0.69478,0.797238 -1.76604,1.484375 -2.779297,1.484375 -2.344778,0 -2.488281,-3.438936 -2.488281,-4.978515 0,-0.207686 0.0034,-0.452076 0.01367,-0.714844 -0.761473,-0.08664 -1.525441,-0.151928 -2.285156,-0.255859 -0.350189,-0.04922 -0.700422,-0.09829 -1.050781,-0.146485 z" />
        <path
           id="Fill-9"
           d="m 88.734375,11.302734 c -0.333771,-10e-4 -0.495954,0.216274 -0.552734,0.46875 -0.0013,0.0059 -0.0065,0.0082 -0.01172,0.0059 -0.728723,-0.303181 -1.570847,-0.482923 -2.544922,-0.472656 -3.605486,0.03726 -5.48019,2.142221 -5.9375,5.052734 1.113424,0.04601 2.226402,0.09146 3.339844,0.128906 0.16895,-1.691509 0.743914,-3.833984 2.568359,-3.833984 2.230446,0 2.576586,2.376626 2.625,3.980468 1.143103,0.02913 2.286486,0.04587 3.429688,0.07031 -0.0028,-1.954118 -0.03125,-4.240234 -0.03125,-4.240234 -0.02305,-0.597981 0.104009,-1.150039 -0.574219,-1.152344 z m 7.191406,4.060547 c -0.03046,0.491166 -0.08257,0.965772 -0.15039,1.423828 0.492223,0.0084 0.984327,0.02345 1.476562,0.03125 -0.46395,-0.512146 -1.325847,-1.463347 -1.326172,-1.455078 z m -16.347656,2.603516 c 0.03695,2.972624 1.491002,6.455078 5.091797,6.455078 1.413656,0 2.769074,-0.76556 3.867187,-1.941406 0.0048,-0.0054 0.01269,-0.0011 0.01563,0.0059 0.732704,1.717884 1.87957,1.972798 3.142578,1.970703 3.313459,-0.0053 4.980879,-3.97843 5.621094,-6.023437 -0.621836,-0.0098 -1.243414,-0.02825 -1.865234,-0.03906 -0.701019,2.695935 -2.008008,4.457032 -3.148438,4.457031 -0.654761,0 -0.65625,-0.319957 -0.65625,-1.785156 v -2.75 c -1.138732,-0.02427 -2.277351,-0.04138 -3.416015,-0.07031 v 3.068359 c -0.69478,0.797656 -1.744557,1.511719 -2.757813,1.511719 -2.221973,0 -2.484113,-3.091839 -2.505859,-4.728516 -1.129843,-0.0382 -2.258829,-0.08378 -3.388672,-0.130859 z" />
        <path
           id="Fill-11"
           d="m 97.746094,11.306641 c -0.522343,0.0023 -1.193764,0.005 -1.654297,0.0039 -0.337333,-6.29e-4 -0.639124,0.222181 -0.724609,0.548828 -0.235715,0.904723 -0.218823,2.004945 -0.160157,2.404297 0.140149,0.957023 0.537373,1.793623 1.257813,2.539062 1.682293,0.02781 3.364471,0.0589 5.046876,0.08008 -0.75694,-0.639817 -1.618188,-1.239493 -2.421876,-1.80664 0.0019,-2.1e-4 0.0066,4.19e-4 0.0078,0 -0.749466,-0.618514 -0.74773,-2.107475 -0.666015,-3.019531 0.03625,-0.404171 -0.2797,-0.751886 -0.685547,-0.75 z m 0.982422,7.15625 c 1.051685,0.706684 2.347184,1.710267 2.488284,2.673828 0.18333,1.251275 -0.75301,2.063311 -1.705081,2.140625 -0.719923,0.05804 -1.380062,-0.602581 -1.685547,-1.074219 -0.137867,-0.212666 -0.426095,-0.267079 -0.623047,-0.107422 -0.02095,0.01676 -0.04197,0.0336 -0.0625,0.05078 -0.239276,0.197791 -0.318811,0.534882 -0.179687,0.8125 0.29459,0.588343 1.023838,1.488282 2.722656,1.488282 2.142166,0 4.308236,-1.937013 3.921876,-4.576172 -0.0691,-0.471283 -0.26802,-0.924571 -0.55859,-1.359375 -1.43937,-0.01665 -2.87908,-0.02788 -4.318364,-0.04883 z" />
        <path
           id="Fill-13"
           d="m 115.78516,11.328125 c -3.52825,0 -5.43305,2.548794 -5.71485,5.644531 0.73179,0.0063 1.46353,0.01752 2.19531,0.02344 0.40495,0.003 0.8099,0.0011 1.21485,0.0039 0.0956,-1.878336 0.61103,-4.402344 3,-4.402344 0.46493,0 0.87211,0.08298 2.41211,0.552735 0.37735,0 0.69726,-0.275224 0.69726,-0.634766 0,-0.883352 -2.70112,-1.1875 -3.80468,-1.1875 z m -5.72266,7.257813 c 0.24396,3.300658 2.04283,5.884765 5.83789,5.884765 1.27872,0 3.05057,-0.386032 4.00977,-0.882812 0.0863,-0.138495 0.14453,-0.275777 0.14453,-0.414063 0,-0.304228 -0.23233,-0.58088 -0.69727,-0.609375 -0.78404,0.248495 -2.20738,0.609375 -2.93359,0.609375 -2.00382,0 -2.8279,-1.616459 -2.94727,-4.560547 -0.40819,-0.0028 -0.81642,-8.33e-4 -1.22461,-0.0039 -0.72981,-0.0059 -1.45965,-0.01719 -2.18945,-0.02344 z" />
        <path
           id="Fill-15"
           d="m 126.50977,11.328125 c -3.87101,0 -5.75381,2.450521 -6.03321,5.697266 1.12955,0.0046 2.25912,0.0083 3.38867,0.01172 0.11096,-1.739515 0.62915,-4.355468 2.67383,-4.355468 2.00219,0 2.48706,2.635639 2.58789,4.375 1.13022,0.0022 2.26041,0.01001 3.39063,0.01172 -0.26629,-3.268055 -2.14588,-5.740234 -6.00781,-5.740234 z m -6.04493,7.310547 c 0.23713,3.338737 2.11882,5.859375 6.04493,5.859375 3.88366,0 5.7622,-2.500138 6.01171,-5.818359 -1.13085,-0.0017 -2.2617,-0.0097 -3.39257,-0.01172 -0.10316,1.76818 -0.60857,4.478515 -2.64844,4.478515 -2.04745,0 -2.52806,-2.728372 -2.62305,-4.496093 -1.13087,-0.0033 -2.26171,-0.0073 -3.39258,-0.01172 z" />
        <path
           d="m 158.24277,24.489122 c -0.88293,0 -1.68038,-0.740457 -1.68038,-1.623391 0,-0.883142 0.79745,-1.6236 1.68038,-1.6236 0.91164,0 1.70909,0.740458 1.70909,1.6236 0,0.882934 -0.79745,1.623391 -1.70909,1.623391"
           id="Fill-17"
           fill="#3a3a3a" />
        <path
           id="Fill-19"
           d="m 141.86133,11.328125 c -1.57667,0 -2.59884,0.721101 -3.44531,1.636719 V 12 c 0,-0.360171 -0.32173,-0.636719 -0.70118,-0.636719 h -2.07226 c -0.37966,0 -0.70117,0.276548 -0.70117,0.636719 v 5.076172 c 1.15809,-0.0024 2.31692,-0.02089 3.47461,0.0039 v -2.61914 c 0.67152,-0.8316 1.43125,-1.496094 2.30664,-1.496094 0.6426,0 1.08007,0.526808 1.08007,1.96875 v 2.283203 c 0.84101,0.03868 1.6825,0.0644 2.52344,0.105469 0.30742,0.01501 0.61451,0.03696 0.92188,0.05273 v -2.914062 c 0.70085,-0.859466 1.54757,-1.496094 2.27734,-1.496094 0.90514,0 1.13867,0.636954 1.13867,2.300781 v 2.302734 c 1.14855,0.06843 2.29726,0.136827 3.44532,0.212891 v -1.572266 c 0,-2.91154 -0.17532,-4.880859 -3.41602,-4.880859 -1.63491,0 -2.71613,0.802682 -3.65039,1.912109 -0.40878,-1.470017 -1.78035,-1.912109 -3.18164,-1.912109 z m -6.91992,7.359375 v 5.171875 c 0,0.36059 0.32151,0.636719 0.70117,0.636719 h 2.07226 c 0.37945,0 0.70118,-0.276129 0.70118,-0.636719 v -5.166016 c -1.1578,-0.02501 -2.31642,-0.0081 -3.47461,-0.0059 z m 6.86132,0.140625 v 5.03125 c 0,0.36059 0.32173,0.636719 0.70118,0.636719 h 2.04297 c 0.37965,0 0.70117,-0.276129 0.70117,-0.636719 v -4.871094 c -0.33019,-0.01706 -0.65999,-0.04046 -0.99024,-0.05664 -0.81823,-0.04008 -1.63686,-0.06604 -2.45508,-0.103516 z m 6.86133,0.353516 v 0.548828 c 0,2.99493 0.37858,4.761719 4.29102,4.761719 2.22535,0 1.84689,-1.267579 1.28515,-1.267579 -1.22613,0 -2.13085,-0.415936 -2.13085,-2.052734 v -1.775391 c -1.14816,-0.07634 -2.29666,-0.146074 -3.44532,-0.214843 z" />
        <path
           id="Fill-21"
           d="m 162.47266,11.277344 c -0.37798,0 -0.76368,0.277176 -0.76368,0.636718 l 0.01,6.560547 c 1.15689,0.08804 2.31385,0.173262 3.4707,0.261719 v -4.324219 c 0.6688,-0.828875 1.42463,-1.492187 2.29688,-1.492187 0.6403,0 1.07617,0.526187 1.07617,1.96289 v 4.107422 c 0.24677,0.01856 0.49345,0.0382 0.74023,0.05664 0.89791,0.06208 1.79559,0.130559 2.69336,0.195313 v -4.830079 c 0.69814,-0.856323 1.54053,-1.492187 2.26758,-1.492187 0.90158,0 1.13477,0.637171 1.13477,2.294922 v 4.27539 c 1.1438,0.0845 2.28778,0.166115 3.43164,0.25 v -3.585937 c 0,-2.901483 -0.17359,-4.863281 -3.40235,-4.863281 -1.62883,0 -2.7058,0.800803 -3.63671,1.90625 -0.40711,-1.46457 -1.77366,-1.90625 -3.16993,-1.90625 -1.57079,0 -2.5883,0.717478 -3.43164,1.628906 l 0.0449,-1.00586 c -1e-5,-0.359542 -0.31929,-0.636718 -0.69727,-0.636718 z m -0.75196,8.8125 0.006,3.701172 c 0,0.359333 0.32124,0.636718 0.69922,0.636718 h 2.06445 c 0.37778,0 0.69922,-0.277385 0.69922,-0.636718 v -3.4375 c -1.15617,-0.08841 -2.31255,-0.175607 -3.46875,-0.263672 z m 6.8418,0.517578 v 3.183594 c 0,0.359333 0.31929,0.636718 0.69727,0.636718 h 2.03711 c 0.37839,0 0.69921,-0.277385 0.69921,-0.636718 v -2.931641 c -0.93821,-0.06782 -1.87612,-0.140109 -2.81445,-0.205078 -0.20639,-0.01542 -0.41276,-0.03137 -0.61914,-0.04687 z m 6.88867,0.503906 c 0.18755,2.113399 1.00408,3.359375 4.22266,3.359375 1.51255,0 4.94531,-0.471385 4.94531,-1.382812 0,-0.276571 -0.38621,-0.956928 -0.85156,-0.984375 -0.79598,0.308209 -1.48789,0.69366 -2.8125,0.732422 -1.15285,0.03383 -2.02194,-0.09189 -2.11524,-1.478516 -1.12963,-0.08279 -2.25911,-0.162585 -3.38867,-0.246094 z" />
        <g
           id="Group-25"
           transform="translate(181.86667,11.104762)">
          <mask
             id="mask-2"
             fill="#ffffff">
            <use
               xlink:href="#path-1"
               id="use1" />
          </mask>
          <g
             id="Clip-24" />
          <path
             id="Fill-23"
             mask="url(#mask-2)"
             d="m 12.201692,0.18820675 c -0.14499,0 -0.289964,0.0283568 -0.40625,0.11132813 L 7.9360674,5.0944568 6.3970049,2.145238 C 5.6427199,0.71167753 4.2212122,0.2155505 2.7700517,0.2155505 c -1.0157704,0 -1.79925464,0.24791397 -2.46679683,0.5234375 -0.0871618,0.11041894 -0.14453125,0.24885223 -0.14453125,0.3867188 0,0.3031806 0.20310874,0.6343484 0.609375,0.6894531 0.26106638,-0.055105 0.52192718,-0.082031 0.78320308,-0.082031 0.5223424,0 0.9871172,0.1643925 1.3066407,0.8535157 L 5.0044267,6.9968005 3.3598955,9.0788318 c 0.6328378,0.041883 1.2654616,0.087379 1.8984375,0.1269531 L 5.7016924,8.6510974 6.0200517,9.2487536 c 1.4039185,0.085436 2.8080436,0.1646855 4.2128903,0.234375 L 8.7485674,6.6120349 13.102083,1.1257068 V 0.98703488 c 0,-0.46849477 -0.465001,-0.79882813 -0.900391,-0.79882813 z M 2.148958,10.613988 0.73880175,12.401097 v 0.08203 c 0,0.523809 0.46521015,0.855468 0.90039065,0.855468 0.1451998,0 0.3194708,-0.02867 0.4355468,-0.138671 l 1.9589844,-2.45703 C 3.4053884,10.702169 2.777177,10.656721 2.148958,10.613988 Z m 4.7558594,0.298828 0.21875,0.41211 c 0.8705705,1.599084 2.3799526,2.041015 4.1210936,2.041015 1.596151,0 4.845703,-0.524259 4.845703,-1.378906 0,-0.303181 -0.232196,-0.577812 -0.638672,-0.605469 -0.609294,0.275733 -1.624125,0.632813 -2.552734,0.632813 -0.748139,0 -1.444134,-0.226839 -1.808594,-0.871094 -0.0664,-0.0035 -0.132819,-0.0041 -0.199219,-0.0078 C 9.5618174,11.072505 8.2333212,10.9907 6.9048174,10.912829 Z" />
        </g>
        <g
           id="Group-28">
          <mask
             id="mask-4"
             fill="#ffffff">
            <use
               xlink:href="#path-3"
               id="use2" />
          </mask>
          <g
             id="Clip-27" />
          <path
             d="m 27.515253,4.8974095 c 0,5.3487235 -5.823295,15.6466095 -8.937028,19.6564765 C 17.291749,22.432038 14.763215,20.3148 12.09053,18.076876 7.8168724,14.49821 3.3980152,10.798229 3.0847771,6.4539619 2.9728914,4.9034857 3.3165105,3.6876191 4.1053676,2.8398857 4.8560914,2.0330095 5.8530057,1.7457524 6.5358438,1.7457524 c 2.1415429,0 4.4400192,4.2126857 6.2871812,7.5979619 1.549009,2.8392567 2.540057,4.5795617 3.355104,4.5795617 0.360381,0 0.795562,-0.385943 0.795562,-0.865333 0,-1.195543 4.497219,-10.7626097 8.845886,-10.7626097 0.173486,0 1.695676,0.073124 1.695676,2.6020762 M 24.997825,0.55963809 c -3.004781,0 -6.717962,2.92788571 -8.916076,7.00060951 C 14.093368,3.2989524 9.999901,0 6.65192,0 2.3313295,0 -4.1904762e-5,3.4156571 -4.1904762e-5,6.6293333 -4.1904762e-5,14.623714 10.40072,21.111619 15.988301,24.597048 c 1.170819,0.7304 2.095448,1.307009 2.678971,1.743238 l 0.07983,0.05971 0.08507,-0.05259 C 26.106,21.829026 30.129067,11.44733 30.129067,5.9986637 c 0,-3.4058096 -1.9184,-5.43902861 -5.131238,-5.43902861"
             id="Fill-26"
             fill="#f76c6f"
             mask="url(#mask-4)"
             style="fill:#252525;fill-opacity:1"
             inkscape:export-filename="bodas_logo.svg"
             inkscape:export-xdpi="96"
             inkscape:export-ydpi="96" />
        </g>
      </g>
    </g>
  </g>
</svg>
